<svg width="1280" height="720" xmlns="http://www.w3.org/2000/svg" xmlns:xlink="http://www.w3.org/1999/xlink" overflow="hidden"><defs><filter id="fx0" x="-10%" y="-10%" width="120%" height="120%" filterUnits="userSpaceOnUse" primitiveUnits="userSpaceOnUse"><feComponentTransfer color-interpolation-filters="sRGB"><feFuncR type="discrete" tableValues="0.952941 0.952941"/><feFuncG type="discrete" tableValues="0.956863 0.956863"/><feFuncB type="discrete" tableValues="0.968627 0.968627"/><feFuncA type="linear" slope="0.4" intercept="0"/></feComponentTransfer><feGaussianBlur stdDeviation="1.77778 1.77778"/></filter><filter id="fx1" x="-10%" y="-10%" width="120%" height="120%" filterUnits="userSpaceOnUse" primitiveUnits="userSpaceOnUse"><feComponentTransfer color-interpolation-filters="sRGB"><feFuncR type="discrete" tableValues="1 1"/><feFuncG type="discrete" tableValues="1 1"/><feFuncB type="discrete" tableValues="0.6 0.6"/><feFuncA type="linear" slope="0.4" intercept="0"/></feComponentTransfer><feGaussianBlur stdDeviation="1.77778 1.77778"/></filter><filter id="fx2" x="-10%" y="-10%" width="120%" height="120%" filterUnits="userSpaceOnUse" primitiveUnits="userSpaceOnUse"><feComponentTransfer color-interpolation-filters="sRGB"><feFuncR type="discrete" tableValues="0.952941 0.952941"/><feFuncG type="discrete" tableValues="0.956863 0.956863"/><feFuncB type="discrete" tableValues="0.968627 0.968627"/><feFuncA type="linear" slope="0.4" intercept="0"/></feComponentTransfer><feGaussianBlur stdDeviation="1.77778 1.77778"/></filter><filter id="fx3" x="-10%" y="-10%" width="120%" height="120%" filterUnits="userSpaceOnUse" primitiveUnits="userSpaceOnUse"><feComponentTransfer color-interpolation-filters="sRGB"><feFuncR type="discrete" tableValues="1 1"/><feFuncG type="discrete" tableValues="1 1"/><feFuncB type="discrete" tableValues="0.6 0.6"/><feFuncA type="linear" slope="0.4" intercept="0"/></feComponentTransfer><feGaussianBlur stdDeviation="1.77778 1.77778"/></filter><filter id="fx4" x="-10%" y="-10%" width="120%" height="120%" filterUnits="userSpaceOnUse" primitiveUnits="userSpaceOnUse"><feComponentTransfer color-interpolation-filters="sRGB"><feFuncR type="discrete" tableValues="0.952941 0.952941"/><feFuncG type="discrete" tableValues="0.956863 0.956863"/><feFuncB type="discrete" tableValues="0.968627 0.968627"/><feFuncA type="linear" slope="0.4" intercept="0"/></feComponentTransfer><feGaussianBlur stdDeviation="1.77778 1.77778"/></filter><filter id="fx5" x="-10%" y="-10%" width="120%" height="120%" filterUnits="userSpaceOnUse" primitiveUnits="userSpaceOnUse"><feComponentTransfer color-interpolation-filters="sRGB"><feFuncR type="discrete" tableValues="1 1"/><feFuncG type="discrete" tableValues="1 1"/><feFuncB type="discrete" tableValues="0.6 0.6"/><feFuncA type="linear" slope="0.4" intercept="0"/></feComponentTransfer><feGaussianBlur stdDeviation="1.77778 1.77778"/></filter><filter id="fx6" x="-10%" y="-10%" width="120%" height="120%" filterUnits="userSpaceOnUse" primitiveUnits="userSpaceOnUse"><feComponentTransfer color-interpolation-filters="sRGB"><feFuncR type="discrete" tableValues="0.952941 0.952941"/><feFuncG type="discrete" tableValues="0.956863 0.956863"/><feFuncB type="discrete" tableValues="0.968627 0.968627"/><feFuncA type="linear" slope="0.4" intercept="0"/></feComponentTransfer><feGaussianBlur stdDeviation="1.77778 1.77778"/></filter><filter id="fx7" x="-10%" y="-10%" width="120%" height="120%" filterUnits="userSpaceOnUse" primitiveUnits="userSpaceOnUse"><feComponentTransfer color-interpolation-filters="sRGB"><feFuncR type="discrete" tableValues="1 1"/><feFuncG type="discrete" tableValues="1 1"/><feFuncB type="discrete" tableValues="0.6 0.6"/><feFuncA type="linear" slope="0.4" intercept="0"/></feComponentTransfer><feGaussianBlur stdDeviation="1.77778 1.77778"/></filter><filter id="fx8" x="-10%" y="-10%" width="120%" height="120%" filterUnits="userSpaceOnUse" primitiveUnits="userSpaceOnUse"><feComponentTransfer color-interpolation-filters="sRGB"><feFuncR type="discrete" tableValues="0.952941 0.952941"/><feFuncG type="discrete" tableValues="0.956863 0.956863"/><feFuncB type="discrete" tableValues="0.968627 0.968627"/><feFuncA type="linear" slope="0.4" intercept="0"/></feComponentTransfer><feGaussianBlur stdDeviation="1.77778 1.77778"/></filter><filter id="fx9" x="-10%" y="-10%" width="120%" height="120%" filterUnits="userSpaceOnUse" primitiveUnits="userSpaceOnUse"><feComponentTransfer color-interpolation-filters="sRGB"><feFuncR type="discrete" tableValues="1 1"/><feFuncG type="discrete" tableValues="1 1"/><feFuncB type="discrete" tableValues="0.6 0.6"/><feFuncA type="linear" slope="0.4" intercept="0"/></feComponentTransfer><feGaussianBlur stdDeviation="1.77778 1.77778"/></filter><clipPath id="clip10"><path d="M251 518 251 698 1243 698 1243 518ZM1.90735e-05 1.07288e-05 1280 1.07288e-05 1280 720 1.90735e-05 720Z" fill-rule="evenodd" clip-rule="evenodd"/></clipPath><clipPath id="clip11"><path d="M251 519 251 699 1243 699 1243 519ZM1.90735e-05 1.07288e-05 1280 1.07288e-05 1280 720 1.90735e-05 720Z" fill-rule="evenodd" clip-rule="evenodd"/></clipPath><clipPath id="clip12"><path d="M761 239 761 494 1243 494 1243 239ZM1.90735e-05 1.07288e-05 1280 1.07288e-05 1280 720 1.90735e-05 720Z" fill-rule="evenodd" clip-rule="evenodd"/></clipPath><clipPath id="clip13"><path d="M761 240 761 495 1243 495 1243 240ZM1.90735e-05 1.07288e-05 1280 1.07288e-05 1280 720 1.90735e-05 720Z" fill-rule="evenodd" clip-rule="evenodd"/></clipPath><clipPath id="clip14"><path d="M251 83 251 216 1243 216 1243 83ZM1.90735e-05 1.07288e-05 1280 1.07288e-05 1280 720 1.90735e-05 720Z" fill-rule="evenodd" clip-rule="evenodd"/></clipPath><clipPath id="clip15"><path d="M251 84 251 216 1243 216 1243 84ZM1.90735e-05 1.07288e-05 1280 1.07288e-05 1280 720 1.90735e-05 720Z" fill-rule="evenodd" clip-rule="evenodd"/></clipPath><clipPath id="clip16"><path d="M251 239 251 494 733 494 733 239ZM1.90735e-05 1.07288e-05 1280 1.07288e-05 1280 720 1.90735e-05 720Z" fill-rule="evenodd" clip-rule="evenodd"/></clipPath><clipPath id="clip17"><path d="M251 240 251 495 733 495 733 240ZM1.90735e-05 1.07288e-05 1280 1.07288e-05 1280 720 1.90735e-05 720Z" fill-rule="evenodd" clip-rule="evenodd"/></clipPath></defs><g><rect x="0" y="0" width="1280" height="720" fill="#03222F"/><g clip-path="url(#clip10)"><g filter="url(#fx0)" transform="translate(240 507)"><g><rect x="8.17157" y="8.17157" width="992" height="180" stroke="#042433" stroke-width="2" stroke-miterlimit="8" fill="#0D0D0D"/></g></g></g><rect x="251" y="518" width="992" height="180" stroke="#042433" stroke-width="2" stroke-miterlimit="8" fill="#0D0D0D"/><g clip-path="url(#clip11)"><g filter="url(#fx1)" transform="translate(246 514)"><g><rect x="7.82843" y="7.82843" width="992" height="180" stroke="#042433" stroke-width="2" stroke-miterlimit="8" fill="#031D27"/></g></g></g><rect x="251" y="519" width="992" height="180" stroke="#042433" stroke-width="2" stroke-miterlimit="8" fill="#031D27"/><g clip-path="url(#clip12)"><g filter="url(#fx2)" transform="translate(750 228)"><g><rect x="8.17157" y="8.17157" width="482" height="255" stroke="#042433" stroke-width="2" stroke-miterlimit="8" fill="#0D0D0D"/></g></g></g><rect x="761" y="239" width="482" height="255" stroke="#042433" stroke-width="2" stroke-miterlimit="8" fill="#0D0D0D"/><g clip-path="url(#clip13)"><g filter="url(#fx3)" transform="translate(756 235)"><g><rect x="7.82843" y="7.82843" width="482" height="255" stroke="#042433" stroke-width="2" stroke-miterlimit="8" fill="#031D27"/></g></g></g><rect x="761" y="240" width="482" height="255" stroke="#042433" stroke-width="2" stroke-miterlimit="8" fill="#031D27"/><path d="M37 51 1243.15 51.0001" stroke="#156082" stroke-width="4" stroke-miterlimit="8" fill="none" fill-rule="evenodd"/><text fill="#FFFFFF" font-family="Arial,Arial_MSFontService,sans-serif" font-weight="400" font-size="32" transform="translate(435.333 41)">Reporte</text><text fill="#FFFFFF" font-family="Arial,Arial_MSFontService,sans-serif" font-weight="400" font-size="32" transform="translate(558.166 41)">Ingresos Operativos</text><g filter="url(#fx4)" transform="translate(26 72)"><g><rect x="8.17157" y="8.17157" width="176" height="614" stroke="#042433" stroke-width="2" stroke-miterlimit="8" fill="#061808"/></g></g><rect x="37" y="83" width="176" height="614" stroke="#042433" stroke-width="2" stroke-miterlimit="8" fill="#061808"/><g filter="url(#fx5)" transform="translate(32 81)"><g><rect x="7.82843" y="7.82843" width="176" height="613" stroke="#042433" stroke-width="2" stroke-miterlimit="8" fill="#061808"/></g></g><rect x="37" y="86" width="176" height="613" stroke="#042433" stroke-width="2" stroke-miterlimit="8" fill="#061808"/><g clip-path="url(#clip14)"><g filter="url(#fx6)" transform="translate(240 72)"><g><rect x="8.17157" y="8.17157" width="992" height="133" stroke="#042433" stroke-width="2" stroke-miterlimit="8" fill="#0D0D0D"/></g></g></g><rect x="251" y="83" width="992" height="133" stroke="#042433" stroke-width="2" stroke-miterlimit="8" fill="#0D0D0D"/><g clip-path="url(#clip15)"><g filter="url(#fx7)" transform="translate(246 79)"><g><rect x="7.82843" y="7.82843" width="992" height="132" stroke="#042433" stroke-width="2" stroke-miterlimit="8" fill="#031D27"/></g></g></g><rect x="251" y="84" width="992" height="132" stroke="#042433" stroke-width="2" stroke-miterlimit="8" fill="#031D27"/><g clip-path="url(#clip16)"><g filter="url(#fx8)" transform="translate(240 228)"><g><rect x="8.17157" y="8.17157" width="482" height="255" stroke="#042433" stroke-width="2" stroke-miterlimit="8" fill="#0D0D0D"/></g></g></g><rect x="251" y="239" width="482" height="255" stroke="#042433" stroke-width="2" stroke-miterlimit="8" fill="#0D0D0D"/><g clip-path="url(#clip17)"><g filter="url(#fx9)" transform="translate(246 235)"><g><rect x="7.82843" y="7.82843" width="482" height="255" stroke="#042433" stroke-width="2" stroke-miterlimit="8" fill="#031D27"/></g></g></g><rect x="251" y="240" width="482" height="255" stroke="#042433" stroke-width="2" stroke-miterlimit="8" fill="#031D27"/></g></svg>