<svg width="1280" height="720" xmlns="http://www.w3.org/2000/svg" xmlns:xlink="http://www.w3.org/1999/xlink" overflow="hidden"><defs><filter id="fx0" x="-10%" y="-10%" width="120%" height="120%" filterUnits="userSpaceOnUse" primitiveUnits="userSpaceOnUse"><feComponentTransfer color-interpolation-filters="sRGB"><feFuncR type="discrete" tableValues="0.952941 0.952941"/><feFuncG type="discrete" tableValues="0.956863 0.956863"/><feFuncB type="discrete" tableValues="0.968627 0.968627"/><feFuncA type="linear" slope="0.4" intercept="0"/></feComponentTransfer><feGaussianBlur stdDeviation="1.77778 1.77778"/></filter><filter id="fx1" x="-10%" y="-10%" width="120%" height="120%" filterUnits="userSpaceOnUse" primitiveUnits="userSpaceOnUse"><feComponentTransfer color-interpolation-filters="sRGB"><feFuncR type="discrete" tableValues="1 1"/><feFuncG type="discrete" tableValues="1 1"/><feFuncB type="discrete" tableValues="0.6 0.6"/><feFuncA type="linear" slope="0.4" intercept="0"/></feComponentTransfer><feGaussianBlur stdDeviation="1.77778 1.77778"/></filter><filter id="fx2" x="-10%" y="-10%" width="120%" height="120%" filterUnits="userSpaceOnUse" primitiveUnits="userSpaceOnUse"><feComponentTransfer color-interpolation-filters="sRGB"><feFuncR type="discrete" tableValues="0.952941 0.952941"/><feFuncG type="discrete" tableValues="0.956863 0.956863"/><feFuncB type="discrete" tableValues="0.968627 0.968627"/><feFuncA type="linear" slope="0.4" intercept="0"/></feComponentTransfer><feGaussianBlur stdDeviation="1.77778 1.77778"/></filter><filter id="fx3" x="-10%" y="-10%" width="120%" height="120%" filterUnits="userSpaceOnUse" primitiveUnits="userSpaceOnUse"><feComponentTransfer color-interpolation-filters="sRGB"><feFuncR type="discrete" tableValues="1 1"/><feFuncG type="discrete" tableValues="1 1"/><feFuncB type="discrete" tableValues="0.6 0.6"/><feFuncA type="linear" slope="0.4" intercept="0"/></feComponentTransfer><feGaussianBlur stdDeviation="1.77778 1.77778"/></filter><filter id="fx4" x="-10%" y="-10%" width="120%" height="120%" filterUnits="userSpaceOnUse" primitiveUnits="userSpaceOnUse"><feComponentTransfer color-interpolation-filters="sRGB"><feFuncR type="discrete" tableValues="0.952941 0.952941"/><feFuncG type="discrete" tableValues="0.956863 0.956863"/><feFuncB type="discrete" tableValues="0.968627 0.968627"/><feFuncA type="linear" slope="0.4" intercept="0"/></feComponentTransfer><feGaussianBlur stdDeviation="1.77778 1.77778"/></filter><filter id="fx5" x="-10%" y="-10%" width="120%" height="120%" filterUnits="userSpaceOnUse" primitiveUnits="userSpaceOnUse"><feComponentTransfer color-interpolation-filters="sRGB"><feFuncR type="discrete" tableValues="1 1"/><feFuncG type="discrete" tableValues="1 1"/><feFuncB type="discrete" tableValues="0.6 0.6"/><feFuncA type="linear" slope="0.4" intercept="0"/></feComponentTransfer><feGaussianBlur stdDeviation="1.77778 1.77778"/></filter><filter id="fx6" x="-10%" y="-10%" width="120%" height="120%" filterUnits="userSpaceOnUse" primitiveUnits="userSpaceOnUse"><feComponentTransfer color-interpolation-filters="sRGB"><feFuncR type="discrete" tableValues="0.952941 0.952941"/><feFuncG type="discrete" tableValues="0.956863 0.956863"/><feFuncB type="discrete" tableValues="0.968627 0.968627"/><feFuncA type="linear" slope="0.4" intercept="0"/></feComponentTransfer><feGaussianBlur stdDeviation="1.77778 1.77778"/></filter><filter id="fx7" x="-10%" y="-10%" width="120%" height="120%" filterUnits="userSpaceOnUse" primitiveUnits="userSpaceOnUse"><feComponentTransfer color-interpolation-filters="sRGB"><feFuncR type="discrete" tableValues="1 1"/><feFuncG type="discrete" tableValues="1 1"/><feFuncB type="discrete" tableValues="0.6 0.6"/><feFuncA type="linear" slope="0.4" intercept="0"/></feComponentTransfer><feGaussianBlur stdDeviation="1.77778 1.77778"/></filter><filter id="fx8" x="-10%" y="-10%" width="120%" height="120%" filterUnits="userSpaceOnUse" primitiveUnits="userSpaceOnUse"><feComponentTransfer color-interpolation-filters="sRGB"><feFuncR type="discrete" tableValues="0.952941 0.952941"/><feFuncG type="discrete" tableValues="0.956863 0.956863"/><feFuncB type="discrete" tableValues="0.968627 0.968627"/><feFuncA type="linear" slope="0.4" intercept="0"/></feComponentTransfer><feGaussianBlur stdDeviation="1.77778 1.77778"/></filter><filter id="fx9" x="-10%" y="-10%" width="120%" height="120%" filterUnits="userSpaceOnUse" primitiveUnits="userSpaceOnUse"><feComponentTransfer color-interpolation-filters="sRGB"><feFuncR type="discrete" tableValues="1 1"/><feFuncG type="discrete" tableValues="1 1"/><feFuncB type="discrete" tableValues="0.6 0.6"/><feFuncA type="linear" slope="0.4" intercept="0"/></feComponentTransfer><feGaussianBlur stdDeviation="1.77778 1.77778"/></filter><filter id="fx10" x="-10%" y="-10%" width="120%" height="120%" filterUnits="userSpaceOnUse" primitiveUnits="userSpaceOnUse"><feComponentTransfer color-interpolation-filters="sRGB"><feFuncR type="discrete" tableValues="0.952941 0.952941"/><feFuncG type="discrete" tableValues="0.956863 0.956863"/><feFuncB type="discrete" tableValues="0.968627 0.968627"/><feFuncA type="linear" slope="0.4" intercept="0"/></feComponentTransfer><feGaussianBlur stdDeviation="1.77778 1.77778"/></filter><filter id="fx11" x="-10%" y="-10%" width="120%" height="120%" filterUnits="userSpaceOnUse" primitiveUnits="userSpaceOnUse"><feComponentTransfer color-interpolation-filters="sRGB"><feFuncR type="discrete" tableValues="1 1"/><feFuncG type="discrete" tableValues="1 1"/><feFuncB type="discrete" tableValues="0.6 0.6"/><feFuncA type="linear" slope="0.4" intercept="0"/></feComponentTransfer><feGaussianBlur stdDeviation="1.77778 1.77778"/></filter><clipPath id="clip12"><path d="M431 518 431 698 1243 698 1243 518ZM1.90735e-05 1.07288e-05 1280 1.07288e-05 1280 720 1.90735e-05 720Z" fill-rule="evenodd" clip-rule="evenodd"/></clipPath><clipPath id="clip13"><path d="M431 519 431 699 1243 699 1243 519ZM1.90735e-05 1.07288e-05 1280 1.07288e-05 1280 720 1.90735e-05 720Z" fill-rule="evenodd" clip-rule="evenodd"/></clipPath><clipPath id="clip14"><path d="M759 75 759 359 1243 359 1243 75ZM1.90735e-05 1.07288e-05 1280 1.07288e-05 1280 720 1.90735e-05 720Z" fill-rule="evenodd" clip-rule="evenodd"/></clipPath><clipPath id="clip15"><path d="M759 76 759 360 1243 360 1243 76ZM1.90735e-05 1.07288e-05 1280 1.07288e-05 1280 720 1.90735e-05 720Z" fill-rule="evenodd" clip-rule="evenodd"/></clipPath><clipPath id="clip16"><path d="M36 518 36 697 409 697 409 518ZM1.90735e-05 1.07288e-05 1280 1.07288e-05 1280 720 1.90735e-05 720Z" fill-rule="evenodd" clip-rule="evenodd"/></clipPath><clipPath id="clip17"><path d="M36 518 36 697 409 697 409 518ZM1.90735e-05 1.07288e-05 1280 1.07288e-05 1280 720 1.90735e-05 720Z" fill-rule="evenodd" clip-rule="evenodd"/></clipPath><clipPath id="clip18"><path d="M234 76 234 359 738 359 738 76ZM1.90735e-05 1.07288e-05 1280 1.07288e-05 1280 720 1.90735e-05 720Z" fill-rule="evenodd" clip-rule="evenodd"/></clipPath><clipPath id="clip19"><path d="M234 78 234 360 738 360 738 78ZM1.90735e-05 1.07288e-05 1280 1.07288e-05 1280 720 1.90735e-05 720Z" fill-rule="evenodd" clip-rule="evenodd"/></clipPath><clipPath id="clip20"><path d="M234 382 234 494 1243 494 1243 382ZM1.90735e-05 1.07288e-05 1280 1.07288e-05 1280 720 1.90735e-05 720Z" fill-rule="evenodd" clip-rule="evenodd"/></clipPath><clipPath id="clip21"><path d="M234 383 234 494 1243 494 1243 383ZM1.90735e-05 1.07288e-05 1280 1.07288e-05 1280 720 1.90735e-05 720Z" fill-rule="evenodd" clip-rule="evenodd"/></clipPath></defs><g><rect x="0" y="0" width="1280" height="720" fill="#03222F"/><g clip-path="url(#clip12)"><g filter="url(#fx0)" transform="translate(420 507)"><g><rect x="8.17157" y="8.17157" width="812" height="180" stroke="#042433" stroke-width="2" stroke-miterlimit="8" fill="#0D0D0D"/></g></g></g><rect x="431" y="518" width="812" height="180" stroke="#042433" stroke-width="2" stroke-miterlimit="8" fill="#0D0D0D"/><g clip-path="url(#clip13)"><g filter="url(#fx1)" transform="translate(426 514)"><g><rect x="7.82843" y="7.82843" width="812" height="180" stroke="#042433" stroke-width="2" stroke-miterlimit="8" fill="#031D27"/></g></g></g><rect x="431" y="519" width="812" height="180" stroke="#042433" stroke-width="2" stroke-miterlimit="8" fill="#031D27"/><path d="M37 51 1243.15 51.0001" stroke="#156082" stroke-width="4" stroke-miterlimit="8" fill="none" fill-rule="evenodd"/><text fill="#FFFFFF" font-family="Arial,Arial_MSFontService,sans-serif" font-weight="400" font-size="32" transform="translate(418.623 39)">Reporte</text><text fill="#FFFFFF" font-family="Arial,Arial_MSFontService,sans-serif" font-weight="400" font-size="32" transform="translate(541.456 39)">Viajes</text><text fill="#FFFFFF" font-family="Arial,Arial_MSFontService,sans-serif" font-weight="400" font-size="32" transform="translate(637.043 39)">en el Extranjero</text><g filter="url(#fx2)" transform="translate(26 64)"><g><rect x="8.17157" y="8.17157" width="176" height="418" stroke="#042433" stroke-width="2" stroke-miterlimit="8" fill="#061808"/></g></g><rect x="37" y="75" width="176" height="418" stroke="#042433" stroke-width="2" stroke-miterlimit="8" fill="#061808"/><g filter="url(#fx3)" transform="translate(32 71)"><g><rect x="7.82843" y="7.82843" width="176" height="418" stroke="#042433" stroke-width="2" stroke-miterlimit="8" fill="#061808"/></g></g><rect x="37" y="76" width="176" height="418" stroke="#042433" stroke-width="2" stroke-miterlimit="8" fill="#061808"/><g clip-path="url(#clip14)"><g filter="url(#fx4)" transform="translate(748 64)"><g><rect x="8.17157" y="8.17157" width="484" height="284" stroke="#042433" stroke-width="2" stroke-miterlimit="8" fill="#0D0D0D"/></g></g></g><rect x="759" y="75" width="484" height="284" stroke="#042433" stroke-width="2" stroke-miterlimit="8" fill="#0D0D0D"/><g clip-path="url(#clip15)"><g filter="url(#fx5)" transform="translate(754 71)"><g><rect x="7.82843" y="7.82843" width="484" height="284" stroke="#042433" stroke-width="2" stroke-miterlimit="8" fill="#031D27"/></g></g></g><rect x="759" y="76" width="484" height="284" stroke="#042433" stroke-width="2" stroke-miterlimit="8" fill="#031D27"/><g clip-path="url(#clip16)"><g filter="url(#fx6)" transform="translate(25 507)"><g><rect x="8.17157" y="8.17157" width="373" height="179" stroke="#042433" stroke-width="2" stroke-miterlimit="8" fill="#0D0D0D"/></g></g></g><rect x="36" y="518" width="373" height="179" stroke="#042433" stroke-width="2" stroke-miterlimit="8" fill="#0D0D0D"/><g clip-path="url(#clip17)"><g filter="url(#fx7)" transform="translate(31 513)"><g><rect x="7.82843" y="7.82843" width="373" height="179" stroke="#042433" stroke-width="2" stroke-miterlimit="8" fill="#031D27"/></g></g></g><rect x="36" y="518" width="373" height="179" stroke="#042433" stroke-width="2" stroke-miterlimit="8" fill="#031D27"/><g clip-path="url(#clip18)"><g filter="url(#fx8)" transform="translate(223 65)"><g><rect x="8.17157" y="8.17157" width="504" height="283" stroke="#042433" stroke-width="2" stroke-miterlimit="8" fill="#0D0D0D"/></g></g></g><rect x="234" y="76" width="504" height="283" stroke="#042433" stroke-width="2" stroke-miterlimit="8" fill="#0D0D0D"/><g clip-path="url(#clip19)"><g filter="url(#fx9)" transform="translate(229 73)"><g><rect x="7.82843" y="7.82843" width="504" height="282" stroke="#042433" stroke-width="2" stroke-miterlimit="8" fill="#031D27"/></g></g></g><rect x="234" y="78" width="504" height="282" stroke="#042433" stroke-width="2" stroke-miterlimit="8" fill="#031D27"/><g clip-path="url(#clip20)"><g filter="url(#fx10)" transform="translate(223 371)"><g><rect x="8.17157" y="8.17157" width="1009" height="112" stroke="#042433" stroke-width="2" stroke-miterlimit="8" fill="#0D0D0D"/></g></g></g><rect x="234" y="382" width="1009" height="112" stroke="#042433" stroke-width="2" stroke-miterlimit="8" fill="#0D0D0D"/><g clip-path="url(#clip21)"><g filter="url(#fx11)" transform="translate(229 378)"><g><rect x="7.82843" y="7.82843" width="1009" height="111" stroke="#042433" stroke-width="2" stroke-miterlimit="8" fill="#031D27"/></g></g></g><rect x="234" y="383" width="1009" height="111" stroke="#042433" stroke-width="2" stroke-miterlimit="8" fill="#031D27"/></g></svg>