<svg width="1280" height="720" xmlns="http://www.w3.org/2000/svg" xmlns:xlink="http://www.w3.org/1999/xlink" overflow="hidden"><defs><filter id="fx0" x="-10%" y="-10%" width="120%" height="120%" filterUnits="userSpaceOnUse" primitiveUnits="userSpaceOnUse"><feComponentTransfer color-interpolation-filters="sRGB"><feFuncR type="discrete" tableValues="0.952941 0.952941"/><feFuncG type="discrete" tableValues="0.956863 0.956863"/><feFuncB type="discrete" tableValues="0.968627 0.968627"/><feFuncA type="linear" slope="0.4" intercept="0"/></feComponentTransfer><feGaussianBlur stdDeviation="1.77778 1.77778"/></filter><filter id="fx1" x="-10%" y="-10%" width="120%" height="120%" filterUnits="userSpaceOnUse" primitiveUnits="userSpaceOnUse"><feComponentTransfer color-interpolation-filters="sRGB"><feFuncR type="discrete" tableValues="1 1"/><feFuncG type="discrete" tableValues="1 1"/><feFuncB type="discrete" tableValues="0.6 0.6"/><feFuncA type="linear" slope="0.4" intercept="0"/></feComponentTransfer><feGaussianBlur stdDeviation="1.77778 1.77778"/></filter><filter id="fx2" x="-10%" y="-10%" width="120%" height="120%" filterUnits="userSpaceOnUse" primitiveUnits="userSpaceOnUse"><feComponentTransfer color-interpolation-filters="sRGB"><feFuncR type="discrete" tableValues="0.952941 0.952941"/><feFuncG type="discrete" tableValues="0.956863 0.956863"/><feFuncB type="discrete" tableValues="0.968627 0.968627"/><feFuncA type="linear" slope="0.4" intercept="0"/></feComponentTransfer><feGaussianBlur stdDeviation="1.77778 1.77778"/></filter><filter id="fx3" x="-10%" y="-10%" width="120%" height="120%" filterUnits="userSpaceOnUse" primitiveUnits="userSpaceOnUse"><feComponentTransfer color-interpolation-filters="sRGB"><feFuncR type="discrete" tableValues="1 1"/><feFuncG type="discrete" tableValues="1 1"/><feFuncB type="discrete" tableValues="0.6 0.6"/><feFuncA type="linear" slope="0.4" intercept="0"/></feComponentTransfer><feGaussianBlur stdDeviation="1.77778 1.77778"/></filter><filter id="fx4" x="-10%" y="-10%" width="120%" height="120%" filterUnits="userSpaceOnUse" primitiveUnits="userSpaceOnUse"><feComponentTransfer color-interpolation-filters="sRGB"><feFuncR type="discrete" tableValues="0.952941 0.952941"/><feFuncG type="discrete" tableValues="0.956863 0.956863"/><feFuncB type="discrete" tableValues="0.968627 0.968627"/><feFuncA type="linear" slope="0.4" intercept="0"/></feComponentTransfer><feGaussianBlur stdDeviation="1.77778 1.77778"/></filter><filter id="fx5" x="-10%" y="-10%" width="120%" height="120%" filterUnits="userSpaceOnUse" primitiveUnits="userSpaceOnUse"><feComponentTransfer color-interpolation-filters="sRGB"><feFuncR type="discrete" tableValues="1 1"/><feFuncG type="discrete" tableValues="1 1"/><feFuncB type="discrete" tableValues="0.6 0.6"/><feFuncA type="linear" slope="0.4" intercept="0"/></feComponentTransfer><feGaussianBlur stdDeviation="1.77778 1.77778"/></filter><filter id="fx6" x="-10%" y="-10%" width="120%" height="120%" filterUnits="userSpaceOnUse" primitiveUnits="userSpaceOnUse"><feComponentTransfer color-interpolation-filters="sRGB"><feFuncR type="discrete" tableValues="0.952941 0.952941"/><feFuncG type="discrete" tableValues="0.956863 0.956863"/><feFuncB type="discrete" tableValues="0.968627 0.968627"/><feFuncA type="linear" slope="0.4" intercept="0"/></feComponentTransfer><feGaussianBlur stdDeviation="1.77778 1.77778"/></filter><filter id="fx7" x="-10%" y="-10%" width="120%" height="120%" filterUnits="userSpaceOnUse" primitiveUnits="userSpaceOnUse"><feComponentTransfer color-interpolation-filters="sRGB"><feFuncR type="discrete" tableValues="1 1"/><feFuncG type="discrete" tableValues="1 1"/><feFuncB type="discrete" tableValues="0.6 0.6"/><feFuncA type="linear" slope="0.4" intercept="0"/></feComponentTransfer><feGaussianBlur stdDeviation="1.77778 1.77778"/></filter><filter id="fx8" x="-10%" y="-10%" width="120%" height="120%" filterUnits="userSpaceOnUse" primitiveUnits="userSpaceOnUse"><feComponentTransfer color-interpolation-filters="sRGB"><feFuncR type="discrete" tableValues="0.952941 0.952941"/><feFuncG type="discrete" tableValues="0.956863 0.956863"/><feFuncB type="discrete" tableValues="0.968627 0.968627"/><feFuncA type="linear" slope="0.4" intercept="0"/></feComponentTransfer><feGaussianBlur stdDeviation="1.77778 1.77778"/></filter><filter id="fx9" x="-10%" y="-10%" width="120%" height="120%" filterUnits="userSpaceOnUse" primitiveUnits="userSpaceOnUse"><feComponentTransfer color-interpolation-filters="sRGB"><feFuncR type="discrete" tableValues="1 1"/><feFuncG type="discrete" tableValues="1 1"/><feFuncB type="discrete" tableValues="0.6 0.6"/><feFuncA type="linear" slope="0.4" intercept="0"/></feComponentTransfer><feGaussianBlur stdDeviation="1.77778 1.77778"/></filter><filter id="fx10" x="-10%" y="-10%" width="120%" height="120%" filterUnits="userSpaceOnUse" primitiveUnits="userSpaceOnUse"><feComponentTransfer color-interpolation-filters="sRGB"><feFuncR type="discrete" tableValues="0.952941 0.952941"/><feFuncG type="discrete" tableValues="0.956863 0.956863"/><feFuncB type="discrete" tableValues="0.968627 0.968627"/><feFuncA type="linear" slope="0.4" intercept="0"/></feComponentTransfer><feGaussianBlur stdDeviation="1.77778 1.77778"/></filter><filter id="fx11" x="-10%" y="-10%" width="120%" height="120%" filterUnits="userSpaceOnUse" primitiveUnits="userSpaceOnUse"><feComponentTransfer color-interpolation-filters="sRGB"><feFuncR type="discrete" tableValues="1 1"/><feFuncG type="discrete" tableValues="1 1"/><feFuncB type="discrete" tableValues="0.6 0.6"/><feFuncA type="linear" slope="0.4" intercept="0"/></feComponentTransfer><feGaussianBlur stdDeviation="1.77778 1.77778"/></filter><clipPath id="clip12"><path d="M853 477 853 699 1243 699 1243 477ZM1.90735e-05 1.07288e-05 1280 1.07288e-05 1280 720 1.90735e-05 720Z" fill-rule="evenodd" clip-rule="evenodd"/></clipPath><clipPath id="clip13"><path d="M853 478 853 700 1243 700 1243 478ZM1.90735e-05 1.07288e-05 1280 1.07288e-05 1280 720 1.90735e-05 720Z" fill-rule="evenodd" clip-rule="evenodd"/></clipPath><clipPath id="clip14"><path d="M251 81 251 493 640 493 640 81ZM1.90735e-05 1.07288e-05 1280 1.07288e-05 1280 720 1.90735e-05 720Z" fill-rule="evenodd" clip-rule="evenodd"/></clipPath><clipPath id="clip15"><path d="M251 82 251 494 640 494 640 82ZM1.90735e-05 1.07288e-05 1280 1.07288e-05 1280 720 1.90735e-05 720Z" fill-rule="evenodd" clip-rule="evenodd"/></clipPath><clipPath id="clip16"><path d="M678 79 678 461 1243 461 1243 79ZM1.90735e-05 1.07288e-05 1280 1.07288e-05 1280 720 1.90735e-05 720Z" fill-rule="evenodd" clip-rule="evenodd"/></clipPath><clipPath id="clip17"><path d="M678 81 678 463 1243 463 1243 81ZM1.90735e-05 1.07288e-05 1280 1.07288e-05 1280 720 1.90735e-05 720Z" fill-rule="evenodd" clip-rule="evenodd"/></clipPath><clipPath id="clip18"><path d="M37 518 37 699 213 699 213 518ZM1.90735e-05 1.07288e-05 1280 1.07288e-05 1280 720 1.90735e-05 720Z" fill-rule="evenodd" clip-rule="evenodd"/></clipPath><clipPath id="clip19"><path d="M37 519 37 700 213 700 213 519ZM1.90735e-05 1.07288e-05 1280 1.07288e-05 1280 720 1.90735e-05 720Z" fill-rule="evenodd" clip-rule="evenodd"/></clipPath><clipPath id="clip20"><path d="M251 517 251 696 834 696 834 517ZM1.90735e-05 1.07288e-05 1280 1.07288e-05 1280 720 1.90735e-05 720Z" fill-rule="evenodd" clip-rule="evenodd"/></clipPath><clipPath id="clip21"><path d="M251 518 251 697 834 697 834 518ZM1.90735e-05 1.07288e-05 1280 1.07288e-05 1280 720 1.90735e-05 720Z" fill-rule="evenodd" clip-rule="evenodd"/></clipPath></defs><g><rect x="0" y="0" width="1280" height="720" fill="#03222F"/><g clip-path="url(#clip12)"><g filter="url(#fx0)" transform="translate(842 466)"><g><rect x="8.17157" y="8.17157" width="390" height="222" stroke="#042433" stroke-width="2" stroke-miterlimit="8" fill="#0D0D0D"/></g></g></g><rect x="853" y="477" width="390" height="222" stroke="#042433" stroke-width="2" stroke-miterlimit="8" fill="#0D0D0D"/><g clip-path="url(#clip13)"><g filter="url(#fx1)" transform="translate(848 473)"><g><rect x="7.82843" y="7.82843" width="390" height="222" stroke="#042433" stroke-width="2" stroke-miterlimit="8" fill="#031D27"/></g></g></g><rect x="853" y="478" width="390" height="222" stroke="#042433" stroke-width="2" stroke-miterlimit="8" fill="#031D27"/><g clip-path="url(#clip14)"><g filter="url(#fx2)" transform="translate(240 70)"><g><rect x="8.17157" y="8.17157" width="389" height="412" stroke="#042433" stroke-width="2" stroke-miterlimit="8" fill="#0D0D0D"/></g></g></g><rect x="251" y="81" width="389" height="412" stroke="#042433" stroke-width="2" stroke-miterlimit="8" fill="#0D0D0D"/><g clip-path="url(#clip15)"><g filter="url(#fx3)" transform="translate(246 77)"><g><rect x="7.82843" y="7.82843" width="389" height="412" stroke="#042433" stroke-width="2" stroke-miterlimit="8" fill="#031D27"/></g></g></g><rect x="251" y="82" width="389" height="412" stroke="#042433" stroke-width="2" stroke-miterlimit="8" fill="#031D27"/><path d="M37 51 1243.15 51.0001" stroke="#156082" stroke-width="4" stroke-miterlimit="8" fill="none" fill-rule="evenodd"/><text fill="#FFFFFF" font-family="Arial,Arial_MSFontService,sans-serif" font-weight="400" font-size="32" transform="translate(523.623 39)">Resumen Viajes</text><g clip-path="url(#clip16)"><g filter="url(#fx4)" transform="translate(667 68)"><g><rect x="8.17157" y="8.17157" width="565" height="382" stroke="#042433" stroke-width="2" stroke-miterlimit="8" fill="#0D0D0D"/></g></g></g><rect x="678" y="79" width="565" height="382" stroke="#042433" stroke-width="2" stroke-miterlimit="8" fill="#0D0D0D"/><g clip-path="url(#clip17)"><g filter="url(#fx5)" transform="translate(673 76)"><g><rect x="7.82843" y="7.82843" width="565" height="382" stroke="#042433" stroke-width="2" stroke-miterlimit="8" fill="#031D27"/></g></g></g><rect x="678" y="81" width="565" height="382" stroke="#042433" stroke-width="2" stroke-miterlimit="8" fill="#031D27"/><g clip-path="url(#clip18)"><g filter="url(#fx6)" transform="translate(26 507)"><g><rect x="8.17157" y="8.17157" width="176" height="181" stroke="#042433" stroke-width="2" stroke-miterlimit="8" fill="#0D0D0D"/></g></g></g><rect x="37" y="518" width="176" height="181" stroke="#042433" stroke-width="2" stroke-miterlimit="8" fill="#0D0D0D"/><g clip-path="url(#clip19)"><g filter="url(#fx7)" transform="translate(32 514)"><g><rect x="7.82843" y="7.82843" width="176" height="181" stroke="#042433" stroke-width="2" stroke-miterlimit="8" fill="#260F04"/></g></g></g><rect x="37" y="519" width="176" height="181" stroke="#042433" stroke-width="2" stroke-miterlimit="8" fill="#260F04"/><g clip-path="url(#clip20)"><g filter="url(#fx8)" transform="translate(240 506)"><g><rect x="8.17157" y="8.17157" width="583" height="179" stroke="#042433" stroke-width="2" stroke-miterlimit="8" fill="#0D0D0D"/></g></g></g><rect x="251" y="517" width="583" height="179" stroke="#042433" stroke-width="2" stroke-miterlimit="8" fill="#0D0D0D"/><g clip-path="url(#clip21)"><g filter="url(#fx9)" transform="translate(246 513)"><g><rect x="7.82843" y="7.82843" width="583" height="179" stroke="#042433" stroke-width="2" stroke-miterlimit="8" fill="#031D27"/></g></g></g><rect x="251" y="518" width="583" height="179" stroke="#042433" stroke-width="2" stroke-miterlimit="8" fill="#031D27"/><g filter="url(#fx10)" transform="translate(26 68)"><g><rect x="8.17157" y="8.17157" width="176" height="414" stroke="#042433" stroke-width="2" stroke-miterlimit="8" fill="#061808"/></g></g><rect x="37" y="79" width="176" height="414" stroke="#042433" stroke-width="2" stroke-miterlimit="8" fill="#061808"/><g filter="url(#fx11)" transform="translate(32 76)"><g><rect x="7.82843" y="7.82843" width="176" height="413" stroke="#042433" stroke-width="2" stroke-miterlimit="8" fill="#061808"/></g></g><rect x="37" y="81" width="176" height="413" stroke="#042433" stroke-width="2" stroke-miterlimit="8" fill="#061808"/></g></svg>