<svg width="1280" height="720" xmlns="http://www.w3.org/2000/svg" xmlns:xlink="http://www.w3.org/1999/xlink" overflow="hidden"><defs><filter id="fx0" x="-10%" y="-10%" width="120%" height="120%" filterUnits="userSpaceOnUse" primitiveUnits="userSpaceOnUse"><feComponentTransfer color-interpolation-filters="sRGB"><feFuncR type="discrete" tableValues="0.952941 0.952941"/><feFuncG type="discrete" tableValues="0.956863 0.956863"/><feFuncB type="discrete" tableValues="0.968627 0.968627"/><feFuncA type="linear" slope="0.4" intercept="0"/></feComponentTransfer><feGaussianBlur stdDeviation="1.77778 1.77778"/></filter><filter id="fx1" x="-10%" y="-10%" width="120%" height="120%" filterUnits="userSpaceOnUse" primitiveUnits="userSpaceOnUse"><feComponentTransfer color-interpolation-filters="sRGB"><feFuncR type="discrete" tableValues="1 1"/><feFuncG type="discrete" tableValues="1 1"/><feFuncB type="discrete" tableValues="0.6 0.6"/><feFuncA type="linear" slope="0.4" intercept="0"/></feComponentTransfer><feGaussianBlur stdDeviation="1.77778 1.77778"/></filter><filter id="fx2" x="-10%" y="-10%" width="120%" height="120%" filterUnits="userSpaceOnUse" primitiveUnits="userSpaceOnUse"><feComponentTransfer color-interpolation-filters="sRGB"><feFuncR type="discrete" tableValues="0.952941 0.952941"/><feFuncG type="discrete" tableValues="0.956863 0.956863"/><feFuncB type="discrete" tableValues="0.968627 0.968627"/><feFuncA type="linear" slope="0.4" intercept="0"/></feComponentTransfer><feGaussianBlur stdDeviation="1.77778 1.77778"/></filter><filter id="fx3" x="-10%" y="-10%" width="120%" height="120%" filterUnits="userSpaceOnUse" primitiveUnits="userSpaceOnUse"><feComponentTransfer color-interpolation-filters="sRGB"><feFuncR type="discrete" tableValues="1 1"/><feFuncG type="discrete" tableValues="1 1"/><feFuncB type="discrete" tableValues="0.6 0.6"/><feFuncA type="linear" slope="0.4" intercept="0"/></feComponentTransfer><feGaussianBlur stdDeviation="1.77778 1.77778"/></filter><filter id="fx4" x="-10%" y="-10%" width="120%" height="120%" filterUnits="userSpaceOnUse" primitiveUnits="userSpaceOnUse"><feComponentTransfer color-interpolation-filters="sRGB"><feFuncR type="discrete" tableValues="0.952941 0.952941"/><feFuncG type="discrete" tableValues="0.956863 0.956863"/><feFuncB type="discrete" tableValues="0.968627 0.968627"/><feFuncA type="linear" slope="0.4" intercept="0"/></feComponentTransfer><feGaussianBlur stdDeviation="1.77778 1.77778"/></filter><filter id="fx5" x="-10%" y="-10%" width="120%" height="120%" filterUnits="userSpaceOnUse" primitiveUnits="userSpaceOnUse"><feComponentTransfer color-interpolation-filters="sRGB"><feFuncR type="discrete" tableValues="1 1"/><feFuncG type="discrete" tableValues="1 1"/><feFuncB type="discrete" tableValues="0.6 0.6"/><feFuncA type="linear" slope="0.4" intercept="0"/></feComponentTransfer><feGaussianBlur stdDeviation="1.77778 1.77778"/></filter><filter id="fx6" x="-10%" y="-10%" width="120%" height="120%" filterUnits="userSpaceOnUse" primitiveUnits="userSpaceOnUse"><feComponentTransfer color-interpolation-filters="sRGB"><feFuncR type="discrete" tableValues="0.952941 0.952941"/><feFuncG type="discrete" tableValues="0.956863 0.956863"/><feFuncB type="discrete" tableValues="0.968627 0.968627"/><feFuncA type="linear" slope="0.4" intercept="0"/></feComponentTransfer><feGaussianBlur stdDeviation="1.77778 1.77778"/></filter><filter id="fx7" x="-10%" y="-10%" width="120%" height="120%" filterUnits="userSpaceOnUse" primitiveUnits="userSpaceOnUse"><feComponentTransfer color-interpolation-filters="sRGB"><feFuncR type="discrete" tableValues="1 1"/><feFuncG type="discrete" tableValues="1 1"/><feFuncB type="discrete" tableValues="0.6 0.6"/><feFuncA type="linear" slope="0.4" intercept="0"/></feComponentTransfer><feGaussianBlur stdDeviation="1.77778 1.77778"/></filter><filter id="fx8" x="-10%" y="-10%" width="120%" height="120%" filterUnits="userSpaceOnUse" primitiveUnits="userSpaceOnUse"><feComponentTransfer color-interpolation-filters="sRGB"><feFuncR type="discrete" tableValues="0.952941 0.952941"/><feFuncG type="discrete" tableValues="0.956863 0.956863"/><feFuncB type="discrete" tableValues="0.968627 0.968627"/><feFuncA type="linear" slope="0.4" intercept="0"/></feComponentTransfer><feGaussianBlur stdDeviation="1.77778 1.77778"/></filter><filter id="fx9" x="-10%" y="-10%" width="120%" height="120%" filterUnits="userSpaceOnUse" primitiveUnits="userSpaceOnUse"><feComponentTransfer color-interpolation-filters="sRGB"><feFuncR type="discrete" tableValues="1 1"/><feFuncG type="discrete" tableValues="1 1"/><feFuncB type="discrete" tableValues="0.6 0.6"/><feFuncA type="linear" slope="0.4" intercept="0"/></feComponentTransfer><feGaussianBlur stdDeviation="1.77778 1.77778"/></filter><filter id="fx10" x="-10%" y="-10%" width="120%" height="120%" filterUnits="userSpaceOnUse" primitiveUnits="userSpaceOnUse"><feComponentTransfer color-interpolation-filters="sRGB"><feFuncR type="discrete" tableValues="0.952941 0.952941"/><feFuncG type="discrete" tableValues="0.956863 0.956863"/><feFuncB type="discrete" tableValues="0.968627 0.968627"/><feFuncA type="linear" slope="0.4" intercept="0"/></feComponentTransfer><feGaussianBlur stdDeviation="1.77778 1.77778"/></filter><filter id="fx11" x="-10%" y="-10%" width="120%" height="120%" filterUnits="userSpaceOnUse" primitiveUnits="userSpaceOnUse"><feComponentTransfer color-interpolation-filters="sRGB"><feFuncR type="discrete" tableValues="1 1"/><feFuncG type="discrete" tableValues="1 1"/><feFuncB type="discrete" tableValues="0.6 0.6"/><feFuncA type="linear" slope="0.4" intercept="0"/></feComponentTransfer><feGaussianBlur stdDeviation="1.77778 1.77778"/></filter><clipPath id="clip12"><path d="M770 83 770 400 1243 400 1243 83ZM1.90735e-05 1.07288e-05 1280 1.07288e-05 1280 720 1.90735e-05 720Z" fill-rule="evenodd" clip-rule="evenodd"/></clipPath><clipPath id="clip13"><path d="M770 84 770 402 1243 402 1243 84ZM1.90735e-05 1.07288e-05 1280 1.07288e-05 1280 720 1.90735e-05 720Z" fill-rule="evenodd" clip-rule="evenodd"/></clipPath><clipPath id="clip14"><path d="M251 434 251 700 724 700 724 434ZM1.90735e-05 1.07288e-05 1280 1.07288e-05 1280 720 1.90735e-05 720Z" fill-rule="evenodd" clip-rule="evenodd"/></clipPath><clipPath id="clip15"><path d="M251 435 251 701 724 701 724 435ZM1.90735e-05 1.07288e-05 1280 1.07288e-05 1280 720 1.90735e-05 720Z" fill-rule="evenodd" clip-rule="evenodd"/></clipPath><clipPath id="clip16"><path d="M770 433 770 699 1243 699 1243 433ZM1.90735e-05 1.07288e-05 1280 1.07288e-05 1280 720 1.90735e-05 720Z" fill-rule="evenodd" clip-rule="evenodd"/></clipPath><clipPath id="clip17"><path d="M770 434 770 700 1243 700 1243 434ZM1.90735e-05 1.07288e-05 1280 1.07288e-05 1280 720 1.90735e-05 720Z" fill-rule="evenodd" clip-rule="evenodd"/></clipPath><clipPath id="clip18"><path d="M251 87 251 399 724 399 724 87ZM1.90735e-05 1.07288e-05 1280 1.07288e-05 1280 720 1.90735e-05 720Z" fill-rule="evenodd" clip-rule="evenodd"/></clipPath><clipPath id="clip19"><path d="M251 88 251 400 724 400 724 88ZM1.90735e-05 1.07288e-05 1280 1.07288e-05 1280 720 1.90735e-05 720Z" fill-rule="evenodd" clip-rule="evenodd"/></clipPath><clipPath id="clip20"><path d="M577 329 577 399 724 399 724 329ZM1.90735e-05 1.07288e-05 1280 1.07288e-05 1280 720 1.90735e-05 720Z" fill-rule="evenodd" clip-rule="evenodd"/></clipPath><clipPath id="clip21"><path d="M577 329 577 399 724 399 724 329ZM1.90735e-05 1.07288e-05 1280 1.07288e-05 1280 720 1.90735e-05 720Z" fill-rule="evenodd" clip-rule="evenodd"/></clipPath></defs><g><rect x="0" y="0" width="1280" height="720" fill="#03222F"/><g filter="url(#fx0)" transform="translate(26 72)"><g><rect x="8.17157" y="8.17157" width="176" height="614" stroke="#042433" stroke-width="2" stroke-miterlimit="8" fill="#061808"/></g></g><rect x="37" y="83" width="176" height="614" stroke="#042433" stroke-width="2" stroke-miterlimit="8" fill="#061808"/><g filter="url(#fx1)" transform="translate(32 81)"><g><rect x="7.82843" y="7.82843" width="176" height="614" stroke="#042433" stroke-width="2" stroke-miterlimit="8" fill="#061808"/></g></g><rect x="37" y="86" width="176" height="614" stroke="#042433" stroke-width="2" stroke-miterlimit="8" fill="#061808"/><path d="M37 51 1243.15 51.0001" stroke="#156082" stroke-width="4" stroke-miterlimit="8" fill="none" fill-rule="evenodd"/><text fill="#FFFFFF" font-family="Arial,Arial_MSFontService,sans-serif" font-weight="400" font-size="32" transform="translate(492.167 39)">Resumen Financiero</text><g clip-path="url(#clip12)"><g filter="url(#fx2)" transform="translate(759 72)"><g><rect x="8.17157" y="8.17157" width="473" height="317" stroke="#042433" stroke-width="2" stroke-miterlimit="8" fill="#0D0D0D"/></g></g></g><rect x="770" y="83" width="473" height="317" stroke="#042433" stroke-width="2" stroke-miterlimit="8" fill="#0D0D0D"/><g clip-path="url(#clip13)"><g filter="url(#fx3)" transform="translate(765 79)"><g><rect x="7.82843" y="7.82843" width="473" height="318" stroke="#042433" stroke-width="2" stroke-miterlimit="8" fill="#260F04"/></g></g></g><rect x="770" y="84" width="473" height="318" stroke="#042433" stroke-width="2" stroke-miterlimit="8" fill="#260F04"/><g clip-path="url(#clip14)"><g filter="url(#fx4)" transform="translate(240 423)"><g><rect x="8.17157" y="8.17157" width="473" height="266" stroke="#042433" stroke-width="2" stroke-miterlimit="8" fill="#0D0D0D"/></g></g></g><rect x="251" y="434" width="473" height="266" stroke="#042433" stroke-width="2" stroke-miterlimit="8" fill="#0D0D0D"/><g clip-path="url(#clip15)"><g filter="url(#fx5)" transform="translate(246 430)"><g><rect x="7.82843" y="7.82843" width="473" height="266" stroke="#042433" stroke-width="2" stroke-miterlimit="8" fill="#260F04"/></g></g></g><rect x="251" y="435" width="473" height="266" stroke="#042433" stroke-width="2" stroke-miterlimit="8" fill="#260F04"/><g clip-path="url(#clip16)"><g filter="url(#fx6)" transform="translate(759 422)"><g><rect x="8.17157" y="8.17157" width="473" height="266" stroke="#042433" stroke-width="2" stroke-miterlimit="8" fill="#0D0D0D"/></g></g></g><rect x="770" y="433" width="473" height="266" stroke="#042433" stroke-width="2" stroke-miterlimit="8" fill="#0D0D0D"/><g clip-path="url(#clip17)"><g filter="url(#fx7)" transform="translate(765 429)"><g><rect x="7.82843" y="7.82843" width="473" height="266" stroke="#042433" stroke-width="2" stroke-miterlimit="8" fill="#260F04"/></g></g></g><rect x="770" y="434" width="473" height="266" stroke="#042433" stroke-width="2" stroke-miterlimit="8" fill="#260F04"/><g clip-path="url(#clip18)"><g filter="url(#fx8)" transform="translate(240 76)"><g><rect x="8.17157" y="8.17157" width="473" height="312" stroke="#042433" stroke-width="2" stroke-miterlimit="8" fill="#0D0D0D"/></g></g></g><rect x="251" y="87" width="473" height="312" stroke="#042433" stroke-width="2" stroke-miterlimit="8" fill="#0D0D0D"/><g clip-path="url(#clip19)"><g filter="url(#fx9)" transform="translate(246 83)"><g><rect x="7.82843" y="7.82843" width="473" height="312" stroke="#042433" stroke-width="2" stroke-miterlimit="8" fill="#031D27"/></g></g></g><rect x="251" y="88" width="473" height="312" stroke="#042433" stroke-width="2" stroke-miterlimit="8" fill="#031D27"/><g clip-path="url(#clip20)"><g filter="url(#fx10)" transform="translate(566 318)"><g><rect x="8.17157" y="8.17157" width="147" height="70" stroke="#042433" stroke-width="2" stroke-miterlimit="8" fill="#0D0D0D"/></g></g></g><rect x="577" y="329" width="147" height="70" stroke="#042433" stroke-width="2" stroke-miterlimit="8" fill="#0D0D0D"/><g clip-path="url(#clip21)"><g filter="url(#fx11)" transform="translate(572 324)"><g><rect x="7.82843" y="7.82843" width="147" height="70" stroke="#042433" stroke-width="2" stroke-miterlimit="8" fill="#260F04"/></g></g></g><rect x="577" y="329" width="147" height="70" stroke="#042433" stroke-width="2" stroke-miterlimit="8" fill="#260F04"/></g></svg>